# xmcd
# Copyright (C) 1995-1998 Ti Kan
#
# Track frame offsets:
#       151
#       33607
#       58737
#       90648
#       118549
#       138656
#       155843
#       169433
#       188774
#       221953
#       246232
#       274904
#
# Disc length: 4071 seconds
#
# Revision: 0
# Processed by: cddbd v1.5.2PL0 Copyright (c) Steve Scherf et al.
# Submitted via: CD-Import v1.0
#
DISCID=bf0fe50c
DTITLE=Various Artist - The Spirit Of Swiss Youth Culture
DYEAR=04
DGENRE=
TTITLE0=Lulúxpo - Just Together
TTITLE1=Water Lilly and Plastique De Rêve -  You Kiss
TTITLE2=Bengston - The Meal
TTITLE3=Minus 8 - Snow Blind
TTITLE4=Mich Gerber - Embers Of Love
TTITLE5=Polar - Damaged People
TTITLE6=Marcus Maeder - Third Places
TTITLE7=Solotempo - Entry
TTITLE8=Rollercone -  When You Left
TTITLE9=Filewile - Orwell
TTITLE10=Laneq - The Light
TTITLE11=The Young Gods - Eregreen
EXTD=
EXTT0=
EXTT1=
EXTT2=
EXTT3=
EXTT4=
EXTT5=
EXTT6=
EXTT7=
EXTT8=
EXTT9=
EXTT10=
EXTT11=
PLAYORDER=
